<svg width="0" height="0" class="hidden">
  <symbol xmlns="http://www.w3.org/2000/svg" viewBox="0 0 320 512" id="chevron-right-solid">
    <path d="M310.6 233.4c12.5 12.5 12.5 32.8 0 45.3l-192 192c-12.5 12.5-32.8 12.5-45.3 0s-12.5-32.8 0-45.3L242.7 256 73.4 86.6c-12.5-12.5-12.5-32.8 0-45.3s32.8-12.5 45.3 0l192 192z"></path>
  </symbol>
  <symbol xmlns="http://www.w3.org/2000/svg" viewBox="0 0 512 512" id="chevron-down-solid">
    <path d="M233.4 406.6c12.5 12.5 32.8 12.5 45.3 0l192-192c12.5-12.5 12.5-32.8 0-45.3s-32.8-12.5-45.3 0L256 338.7 86.6 169.4c-12.5-12.5-32.8-12.5-45.3 0s-12.5 32.8 0 45.3l192 192z"></path>
  </symbol>
  <symbol xmlns="http://www.w3.org/2000/svg" viewBox="0 0 512 512" id="envelope-regular">
    <path d="M64 112c-8.8 0-16 7.2-16 16v22.1L220.5 291.7c20.7 17 50.4 17 71.1 0L464 150.1V128c0-8.8-7.2-16-16-16H64zM48 212.2V384c0 8.8 7.2 16 16 16H448c8.8 0 16-7.2 16-16V212.2L322 328.8c-38.4 31.5-93.7 31.5-132 0L48 212.2zM0 128C0 92.7 28.7 64 64 64H448c35.3 0 64 28.7 64 64V384c0 35.3-28.7 64-64 64H64c-35.3 0-64-28.7-64-64V128z"></path>
  </symbol>
  <symbol xmlns="http://www.w3.org/2000/svg" viewBox="0 0 512 512" id="phone-solid">
    <path d="M164.9 24.6c-7.7-18.6-28-28.5-47.4-23.2l-88 24C12.1 30.2 0 46 0 64C0 311.4 200.6 512 448 512c18 0 33.8-12.1 38.6-29.5l24-88c5.3-19.4-4.6-39.7-23.2-47.4l-96-40c-16.3-6.8-35.2-2.1-46.3 11.6L304.7 368C234.3 334.7 177.3 277.7 144 207.3L193.3 167c13.7-11.2 18.4-30 11.6-46.3l-40-96z"></path>
  </symbol>
  <symbol xmlns="http://www.w3.org/2000/svg" viewBox="0 0 384 512" id="location-dot-solid">
    <path d="M215.7 499.2C267 435 384 279.4 384 192C384 86 298 0 192 0S0 86 0 192c0 87.4 117 243 168.3 307.2c12.3 15.3 35.1 15.3 47.4 0zM192 128a64 64 0 1 1 0 128 64 64 0 1 1 0-128z"></path>
  </symbol>
  <symbol xmlns="http://www.w3.org/2000/svg" viewBox="0 0 448 512" id="check-solid">
    <path d="M438.6 105.4c12.5 12.5 12.5 32.8 0 45.3l-256 256c-12.5 12.5-32.8 12.5-45.3 0l-128-128c-12.5-12.5-12.5-32.8 0-45.3s32.8-12.5 45.3 0L160 338.7 393.4 105.4c12.5-12.5 32.8-12.5 45.3 0z"></path>
  </symbol>
  <symbol xmlns="http://www.w3.org/2000/svg" viewBox="0 0 512 512" id="head-side-virus-solid">
    <path d="M0 224.2C0 100.6 100.2 0 224 0h24c95.2 0 181.2 69.3 197.3 160.2c2.3 13 6.8 25.7 15.1 36l42 52.6c6.2 7.8 9.6 17.4 9.6 27.4c0 24.2-19.6 43.8-43.8 43.8H448v64c0 35.3-28.7 64-64 64H320v32c0 17.7-14.3 32-32 32H96c-17.7 0-32-14.3-32-32V407.3c0-16.7-6.9-32.5-17.1-45.8C16.6 322.4 0 274.1 0 224.2zM224 64c-8.8 0-16 7.2-16 16c0 33-39.9 49.5-63.2 26.2c-6.2-6.2-16.4-6.2-22.6 0s-6.2 16.4 0 22.6C145.5 152.1 129 192 96 192c-8.8 0-16 7.2-16 16s7.2 16 16 16c33 0 49.5 39.9 26.2 63.2c-6.2 6.2-6.2 16.4 0 22.6s16.4 6.2 22.6 0C168.1 286.5 208 303 208 336c0 8.8 7.2 16 16 16s16-7.2 16-16c0-33 39.9-49.5 63.2-26.2c6.2 6.2 16.4 6.2 22.6 0s6.2-16.4 0-22.6C302.5 263.9 319 224 352 224c8.8 0 16-7.2 16-16s-7.2-16-16-16c-33 0-49.5-39.9-26.2-63.2c6.2-6.2 6.2-16.4 0-22.6s-16.4-6.2-22.6 0C279.9 129.5 240 113 240 80c0-8.8-7.2-16-16-16zm-24 96a24 24 0 1 1 0 48 24 24 0 1 1 0-48zm40 80a16 16 0 1 1 32 0 16 16 0 1 1 -32 0z"></path>
  </symbol>
  <symbol xmlns="http://www.w3.org/2000/svg" viewBox="0 0 384 512" id="lightbulb-regular">
    <path d="M297.2 248.9C311.6 228.3 320 203.2 320 176c0-70.7-57.3-128-128-128S64 105.3 64 176c0 27.2 8.4 52.3 22.8 72.9c3.7 5.3 8.1 11.3 12.8 17.7l0 0c12.9 17.7 28.3 38.9 39.8 59.8c10.4 19 15.7 38.8 18.3 57.5H109c-2.2-12-5.9-23.7-11.8-34.5c-9.9-18-22.2-34.9-34.5-51.8l0 0 0 0c-5.2-7.1-10.4-14.2-15.4-21.4C27.6 247.9 16 213.3 16 176C16 78.8 94.8 0 192 0s176 78.8 176 176c0 37.3-11.6 71.9-31.4 100.3c-5 7.2-10.2 14.3-15.4 21.4l0 0 0 0c-12.3 16.8-24.6 33.7-34.5 51.8c-5.9 10.8-9.6 22.5-11.8 34.5H226.4c2.6-18.7 7.9-38.6 18.3-57.5c11.5-20.9 26.9-42.1 39.8-59.8l0 0 0 0 0 0c4.7-6.4 9-12.4 12.7-17.7zM192 128c-26.5 0-48 21.5-48 48c0 8.8-7.2 16-16 16s-16-7.2-16-16c0-44.2 35.8-80 80-80c8.8 0 16 7.2 16 16s-7.2 16-16 16zm0 384c-44.2 0-80-35.8-80-80V416H272v16c0 44.2-35.8 80-80 80z"></path>
  </symbol>
  <symbol xmlns="http://www.w3.org/2000/svg" viewBox="0 0 512 512" id="screwdriver-wrench-solid">
    <path d="M78.6 5C69.1-2.4 55.6-1.5 47 7L7 47c-8.5 8.5-9.4 22-2.1 31.6l80 104c4.5 5.9 11.6 9.4 19 9.4h54.1l109 109c-14.7 29-10 65.4 14.3 89.6l112 112c12.5 12.5 32.8 12.5 45.3 0l64-64c12.5-12.5 12.5-32.8 0-45.3l-112-112c-24.2-24.2-60.6-29-89.6-14.3l-109-109V104c0-7.5-3.5-14.5-9.4-19L78.6 5zM19.9 396.1C7.2 408.8 0 426.1 0 444.1C0 481.6 30.4 512 67.9 512c18 0 35.3-7.2 48-19.9L233.7 374.3c-7.8-20.9-9-43.6-3.6-65.1l-61.7-61.7L19.9 396.1zM512 144c0-10.5-1.1-20.7-3.2-30.5c-2.4-11.2-16.1-14.1-24.2-6l-63.9 63.9c-3 3-7.1 4.7-11.3 4.7H352c-8.8 0-16-7.2-16-16V102.6c0-4.2 1.7-8.3 4.7-11.3l63.9-63.9c8.1-8.1 5.2-21.8-6-24.2C388.7 1.1 378.5 0 368 0C288.5 0 224 64.5 224 144l0 .8 85.3 85.3c36-9.1 75.8 .5 104 28.7L429 274.5c49-23 83-72.8 83-130.5zM56 432a24 24 0 1 1 48 0 24 24 0 1 1 -48 0z"></path>
  </symbol>
  <symbol xmlns="http://www.w3.org/2000/svg" viewBox="0 0 640 512" id="laptop-solid">
    <path d="M128 32C92.7 32 64 60.7 64 96V352h64V96H512V352h64V96c0-35.3-28.7-64-64-64H128zM19.2 384C8.6 384 0 392.6 0 403.2C0 445.6 34.4 480 76.8 480H563.2c42.4 0 76.8-34.4 76.8-76.8c0-10.6-8.6-19.2-19.2-19.2H19.2z"></path>
  </symbol>
  <symbol xmlns="http://www.w3.org/2000/svg" viewBox="0 0 512 512" id="rocket-solid">
    <path d="M156.6 384.9L125.7 354c-8.5-8.5-11.5-20.8-7.7-32.2c3-8.9 7-20.5 11.8-33.8L24 288c-8.6 0-16.6-4.6-20.9-12.1s-4.2-16.7 .2-24.1l52.5-88.5c13-21.9 36.5-35.3 61.9-35.3l82.3 0c2.4-4 4.8-7.7 7.2-11.3C289.1-4.1 411.1-8.1 483.9 5.3c11.6 2.1 20.6 11.2 22.8 22.8c13.4 72.9 9.3 194.8-111.4 276.7c-3.5 2.4-7.3 4.8-11.3 7.2v82.3c0 25.4-13.4 49-35.3 61.9l-88.5 52.5c-7.4 4.4-16.6 4.5-24.1 .2s-12.1-12.2-12.1-20.9V380.8c-14.1 4.9-26.4 8.9-35.7 11.9c-11.2 3.6-23.4 .5-31.8-7.8zM384 168a40 40 0 1 0 0-80 40 40 0 1 0 0 80z"></path>
  </symbol>
  <symbol version="1.1" id="head-cog-brainstorm-thinking-ideas-svgrepo-com" xmlns="http://www.w3.org/2000/svg" xmlns:xlink="http://www.w3.org/1999/xlink" xml:space="preserve" viewBox="0 0 32 32">
    <line x1="20" y1="24" x2="20" y2="29"></line>
    <path d="M18.8,11.2c-1.1,0.2-2,0-2.4-0.7c-0.4-0.7-0.1-1.7,0.6-2.5c-0.9-0.9-1.9-1.5-3.1-1.8c-0.3,1-1,1.8-1.8,1.8
	s-1.5-0.7-1.8-1.8C9,6.6,7.9,7.2,7.1,8c0.7,0.8,1,1.8,0.6,2.5c-0.4,0.7-1.4,0.9-2.4,0.7C5.1,11.8,5,12.4,5,13s0.1,1.2,0.2,1.8
	c1.1-0.2,2,0,2.4,0.7c0.4,0.7,0.1,1.7-0.6,2.5c0.9,0.9,1.9,1.5,3.1,1.8c0.3-1,1-1.8,1.8-1.8s1.5,0.7,1.8,1.8
	c1.2-0.3,2.3-0.9,3.1-1.8c-0.7-0.8-1-1.8-0.6-2.5c0.4-0.7,1.4-0.9,2.4-0.7c0.2-0.6,0.2-1.2,0.2-1.8S18.9,11.8,18.8,11.2z"></path>
    <g>
      <path d="M12,14c-0.1,0-0.3,0-0.4-0.1c-0.1-0.1-0.2-0.1-0.3-0.2c-0.1-0.1-0.2-0.2-0.2-0.3c0-0.1-0.1-0.3-0.1-0.4
		c0-0.1,0-0.3,0.1-0.4c0.1-0.1,0.1-0.2,0.2-0.3c0.4-0.4,1-0.4,1.4,0c0.1,0.1,0.2,0.2,0.2,0.3c0,0.1,0.1,0.3,0.1,0.4
		c0,0.1,0,0.3-0.1,0.4c-0.1,0.1-0.1,0.2-0.2,0.3C12.5,13.9,12.3,14,12,14z"></path>
    </g>
    <line x1="10" y1="19.7" x2="10" y2="27"></line>
    <path d="M19,24h4c1.1,0,2-0.9,2-2v-4h3l-3-6c0-5-4-9-9-9c-3,0-5.7,1.5-7.3,3.8"></path>
  </symbol>
  <symbol fill="#000000" version="1.1" id="smartphone-menu-svgrepo-com" xmlns="http://www.w3.org/2000/svg" xmlns:xlink="http://www.w3.org/1999/xlink" xml:space="preserve" viewBox="0 0 512.001 512.001">
    <g>
      <g>
        <g>
          <path d="M59.731,332.8c-18.825,0-34.133,15.309-34.133,34.133s15.309,34.133,34.133,34.133s34.133-15.309,34.133-34.133
				S78.555,332.8,59.731,332.8z M59.731,384c-9.412,0-17.067-7.654-17.067-17.067s7.654-17.067,17.067-17.067
				s17.067,7.654,17.067,17.067S69.143,384,59.731,384z"></path>
          <path d="M477.864,324.267c-4.719,0-8.533,3.814-8.533,8.533v34.133c0,4.719,3.814,8.533,8.533,8.533s8.533-3.814,8.533-8.533
				V332.8C486.397,328.081,482.583,324.267,477.864,324.267z"></path>
          <path d="M477.864,384c-4.719,0-8.533,3.814-8.533,8.533v8.533c0,4.719,3.814,8.533,8.533,8.533s8.533-3.814,8.533-8.533v-8.533
				C486.397,387.815,482.583,384,477.864,384z"></path>
          <path d="M469.331,51.2c-4.719,0-8.533,3.814-8.533,8.533s3.814,8.533,8.533,8.533h8.533c4.719,0,8.533-3.814,8.533-8.533
				s-3.814-8.533-8.533-8.533H469.331z"></path>
          <path d="M435.197,51.2c-4.719,0-8.533,3.814-8.533,8.533s3.814,8.533,8.533,8.533h8.533c4.719,0,8.533-3.814,8.533-8.533
				s-3.814-8.533-8.533-8.533H435.197z"></path>
          <path d="M401.064,51.2c-4.719,0-8.533,3.814-8.533,8.533s3.814,8.533,8.533,8.533h8.533c4.719,0,8.533-3.814,8.533-8.533
				s-3.814-8.533-8.533-8.533H401.064z"></path>
          <path d="M273.064,51.2h-8.533c-4.719,0-8.533,3.814-8.533,8.533s3.814,8.533,8.533,8.533h8.533c4.719,0,8.533-3.814,8.533-8.533
				S277.783,51.2,273.064,51.2z"></path>
          <path d="M307.197,51.2h-8.533c-4.719,0-8.533,3.814-8.533,8.533s3.814,8.533,8.533,8.533h8.533c4.719,0,8.533-3.814,8.533-8.533
				S311.916,51.2,307.197,51.2z"></path>
          <path d="M375.464,51.2h-8.533c-4.719,0-8.533,3.814-8.533,8.533s3.814,8.533,8.533,8.533h8.533c4.719,0,8.533-3.814,8.533-8.533
				S380.183,51.2,375.464,51.2z"></path>
          <path d="M341.331,51.2h-8.533c-4.719,0-8.533,3.814-8.533,8.533s3.814,8.533,8.533,8.533h8.533c4.719,0,8.533-3.814,8.533-8.533
				S346.05,51.2,341.331,51.2z"></path>
          <path d="M511.997,255.192c0-1.336-0.314-2.594-0.86-3.719c-1.061-4.879-3.072-9.407-5.83-13.382
				c3.829-0.843,6.69-4.251,6.69-8.328v-8.482c0-4.71-3.814-8.533-8.533-8.533c-4.719,0-8.533,3.823-8.533,8.533v6.712
				c-5.907-3.867-12.958-6.125-20.529-6.125H246.316c-1.474-2.55-4.223-4.267-7.385-4.267s-5.911,1.717-7.385,4.267H37.589
				C16.862,221.867,0,238.737,0,259.456v214.955C0,495.13,16.862,512,37.589,512h436.813C495.13,512,512,495.13,512,474.411V259.456
				c0-0.035-0.003-0.069-0.003-0.103V255.192z M443.731,238.934v256H119.464v-256H443.731z M17.067,474.411V259.456
				c0-11.315,9.207-20.523,20.523-20.523h64.808v256H37.589C26.274,494.934,17.067,485.726,17.067,474.411z M474.402,494.934
				h-13.605v-256h13.605c11.307,0,20.501,9.18,20.529,20.472v0.053c0,0.017,0.002,0.034,0.003,0.051v214.901
				C494.933,485.726,485.726,494.934,474.402,494.934z"></path>
          <path d="M503.464,204.375c4.719,0,8.533-3.814,8.533-8.533v-8.474c0-4.719-3.814-8.533-8.533-8.533
				c-4.719,0-8.533,3.814-8.533,8.533v8.474C494.931,200.561,498.745,204.375,503.464,204.375z"></path>
          <path d="M503.468,144.922c-4.719,0-8.533,3.823-8.533,8.533v8.482c0,4.71,3.814,8.533,8.533,8.533
				c4.71,0,8.533-3.823,8.533-8.533v-8.482C512.001,148.745,508.178,144.922,503.468,144.922z"></path>
          <path d="M296.79,17.067h8.482c4.719,0,8.533-3.814,8.533-8.533S309.991,0,305.272,0h-8.482c-4.719,0-8.533,3.814-8.533,8.533
				S292.071,17.067,296.79,17.067z"></path>
          <path d="M503.468,111.011c-4.719,0-8.533,3.814-8.533,8.533v8.474c0,4.719,3.814,8.533,8.533,8.533
				c4.71,0,8.533-3.814,8.533-8.533v-8.474C512.001,114.825,508.178,111.011,503.468,111.011z"></path>
          <path d="M262.904,17.511c0.495,0,0.998-0.043,1.502-0.137c1.161-0.196,2.355-0.307,3.584-0.307h3.362
				c4.719,0,8.533-3.814,8.533-8.533S276.071,0,271.352,0h-3.362c-2.219,0-4.429,0.188-6.571,0.572
				c-4.642,0.828-7.731,5.257-6.904,9.899C255.25,14.601,258.851,17.511,262.904,17.511z"></path>
          <path d="M237.774,39.322c0.64,0.154,1.28,0.222,1.911,0.222c3.891,0,7.407-2.679,8.311-6.63c0.444-1.92,1.178-3.78,2.167-5.513
				c2.347-4.096,0.93-9.31-3.149-11.648c-4.113-2.355-9.31-0.939-11.648,3.149c-1.835,3.191-3.174,6.622-4.002,10.197
				C230.307,33.69,233.174,38.264,237.774,39.322z"></path>
          <path d="M330.702,17.067h8.482c4.71,0,8.533-3.814,8.533-8.533S343.894,0,339.184,0h-8.482c-4.71,0-8.533,3.814-8.533,8.533
				S325.991,17.067,330.702,17.067z"></path>
          <path d="M398.533,17.067h8.482c4.719,0,8.533-3.814,8.533-8.533S411.734,0,407.015,0h-8.482C393.814,0,390,3.815,390,8.534
				S393.814,17.067,398.533,17.067z"></path>
          <path d="M503.468,43.188c-4.719,0-8.533,3.814-8.533,8.533v8.474c0,4.71,3.814,8.533,8.533,8.533c4.71,0,8.533-3.823,8.533-8.533
				v-8.474C512.001,47.002,508.178,43.188,503.468,43.188z"></path>
          <path d="M432.445,17.067h8.474c4.719,0,8.533-3.814,8.533-8.533S445.637,0,440.918,0h-8.474c-4.71,0-8.533,3.814-8.533,8.533
				S427.734,17.067,432.445,17.067z"></path>
          <path d="M503.468,77.091c-4.719,0-8.533,3.814-8.533,8.533v8.482c0,4.719,3.814,8.533,8.533,8.533
				c4.71,0,8.533-3.814,8.533-8.533v-8.482C512.001,80.905,508.178,77.091,503.468,77.091z"></path>
          <path d="M364.622,17.067h8.474c4.719,0,8.533-3.814,8.533-8.533S377.814,0,373.095,0h-8.474c-4.719,0-8.533,3.814-8.533,8.533
				S359.903,17.067,364.622,17.067z"></path>
          <path d="M238.934,73.404c4.71,0,8.533-3.823,8.533-8.533v-8.482c0-4.71-3.823-8.533-8.533-8.533
				c-4.719,0-8.533,3.823-8.533,8.533v8.482C230.401,69.581,234.215,73.404,238.934,73.404z"></path>
          <path d="M238.934,175.139c4.71,0,8.533-3.814,8.533-8.533v-8.474c0-4.71-3.823-8.533-8.533-8.533
				c-4.719,0-8.533,3.823-8.533,8.533v8.474C230.401,171.324,234.215,175.139,238.934,175.139z"></path>
          <path d="M238.934,209.059c4.71,0,8.533-3.814,8.533-8.533v-8.482c0-4.719-3.823-8.533-8.533-8.533
				c-4.719,0-8.533,3.814-8.533,8.533v8.482C230.401,205.244,234.215,209.059,238.934,209.059z"></path>
          <path d="M493.407,29.799c1.348,3.302,4.531,5.291,7.893,5.291c1.084,0,2.176-0.196,3.243-0.64
				c4.352-1.784,6.434-6.767,4.642-11.136c-1.391-3.388-3.26-6.554-5.581-9.404c-2.97-3.652-8.328-4.198-12.006-1.246
				c-3.661,2.978-4.207,8.354-1.246,12.015C491.623,26.223,492.647,27.947,493.407,29.799z"></path>
          <path d="M238.934,107.316c4.71,0,8.533-3.814,8.533-8.533V90.3c0-4.719-3.823-8.533-8.533-8.533
				c-4.719,0-8.533,3.814-8.533,8.533v8.482C230.401,103.501,234.215,107.316,238.934,107.316z"></path>
          <path d="M466.365,17.067h8.474c4.719,0,8.32-3.814,8.32-8.533S479.122,0,474.403,0h-8.038c-4.719,0-8.533,3.814-8.533,8.533
				S461.646,17.067,466.365,17.067z"></path>
          <path d="M238.934,141.227c4.71,0,8.533-3.814,8.533-8.533v-8.474c0-4.719-3.823-8.533-8.533-8.533
				c-4.719,0-8.533,3.814-8.533,8.533v8.474C230.401,137.413,234.215,141.227,238.934,141.227z"></path>
          <path d="M34.131,187.734c4.719,0,8.533-3.814,8.533-8.533c0-51.755,42.112-93.867,93.867-93.867h22.067l-36.634,36.634
				c-3.336,3.337-3.336,8.73,0,12.066c1.664,1.664,3.849,2.5,6.033,2.5s4.369-0.836,6.033-2.5L185.164,82.9
				c0.431-0.422,0.818-0.889,1.152-1.394c0.025-0.037,0.045-0.077,0.07-0.115c0.124-0.193,0.243-0.39,0.351-0.593
				c0.042-0.079,0.077-0.161,0.116-0.242c0.081-0.166,0.163-0.332,0.234-0.503c0.045-0.108,0.08-0.219,0.12-0.329
				c0.054-0.148,0.11-0.294,0.156-0.446c0.044-0.144,0.076-0.29,0.112-0.435c0.03-0.121,0.064-0.24,0.089-0.363
				c0.044-0.22,0.074-0.441,0.101-0.663c0.006-0.052,0.017-0.102,0.022-0.154c0.058-0.573,0.058-1.151,0-1.724
				c-0.005-0.052-0.016-0.102-0.022-0.154c-0.027-0.222-0.057-0.444-0.101-0.663c-0.024-0.123-0.059-0.242-0.089-0.363
				c-0.036-0.146-0.068-0.292-0.112-0.435c-0.046-0.152-0.103-0.299-0.157-0.447c-0.04-0.109-0.075-0.22-0.12-0.328
				c-0.071-0.173-0.153-0.339-0.235-0.505c-0.039-0.08-0.073-0.161-0.115-0.24c-0.108-0.204-0.228-0.4-0.351-0.594
				c-0.024-0.038-0.044-0.077-0.069-0.114c-0.334-0.505-0.721-0.972-1.153-1.394l-51.133-51.133c-3.337-3.337-8.73-3.337-12.066,0
				c-3.336,3.336-3.336,8.73,0,12.066l36.634,36.634h-22.067c-61.167,0-110.933,49.766-110.933,110.933
				C25.597,183.919,29.412,187.734,34.131,187.734z"></path>
          <path d="M162.131,460.8h34.133c4.719,0,8.533-3.814,8.533-8.533v-34.133c0-4.719-3.814-8.533-8.533-8.533h-34.133
				c-4.719,0-8.533,3.814-8.533,8.533v34.133C153.597,456.986,157.412,460.8,162.131,460.8z M170.664,426.667h17.067v17.067h-17.067
				V426.667z"></path>
          <path d="M230.397,460.8h34.133c4.719,0,8.533-3.814,8.533-8.533v-34.133c0-4.719-3.814-8.533-8.533-8.533h-34.133
				c-4.719,0-8.533,3.814-8.533,8.533v34.133C221.864,456.986,225.679,460.8,230.397,460.8z M238.931,426.667h17.067v17.067h-17.067
				V426.667z"></path>
          <path d="M298.664,460.8h34.133c4.719,0,8.533-3.814,8.533-8.533v-34.133c0-4.719-3.814-8.533-8.533-8.533h-34.133
				c-4.719,0-8.533,3.814-8.533,8.533v34.133C290.131,456.986,293.945,460.8,298.664,460.8z M307.197,426.667h17.067v17.067h-17.067
				V426.667z"></path>
          <path d="M366.931,460.8h34.133c4.719,0,8.533-3.814,8.533-8.533v-34.133c0-4.719-3.814-8.533-8.533-8.533h-34.133
				c-4.719,0-8.533,3.814-8.533,8.533v34.133C358.397,456.986,362.212,460.8,366.931,460.8z M375.464,426.667h17.067v17.067h-17.067
				V426.667z"></path>
          <path d="M162.131,392.534h34.133c4.719,0,8.533-3.814,8.533-8.533v-34.133c0-4.719-3.814-8.533-8.533-8.533h-34.133
				c-4.719,0-8.533,3.814-8.533,8.533V384C153.597,388.719,157.412,392.534,162.131,392.534z M170.664,358.4h17.067v17.067h-17.067
				V358.4z"></path>
          <path d="M230.397,392.534h34.133c4.719,0,8.533-3.814,8.533-8.533v-34.133c0-4.719-3.814-8.533-8.533-8.533h-34.133
				c-4.719,0-8.533,3.814-8.533,8.533V384C221.864,388.719,225.679,392.534,230.397,392.534z M238.931,358.4h17.067v17.067h-17.067
				V358.4z"></path>
          <path d="M298.664,392.534h34.133c4.719,0,8.533-3.814,8.533-8.533v-34.133c0-4.719-3.814-8.533-8.533-8.533h-34.133
				c-4.719,0-8.533,3.814-8.533,8.533V384C290.131,388.719,293.945,392.534,298.664,392.534z M307.197,358.4h17.067v17.067h-17.067
				V358.4z"></path>
          <path d="M366.931,392.534h34.133c4.719,0,8.533-3.814,8.533-8.533v-34.133c0-4.719-3.814-8.533-8.533-8.533h-34.133
				c-4.719,0-8.533,3.814-8.533,8.533V384C358.397,388.719,362.212,392.534,366.931,392.534z M375.464,358.4h17.067v17.067h-17.067
				V358.4z"></path>
          <path d="M162.131,324.267h34.133c4.719,0,8.533-3.814,8.533-8.533V281.6c0-4.719-3.814-8.533-8.533-8.533h-34.133
				c-4.719,0-8.533,3.814-8.533,8.533v34.133C153.597,320.453,157.412,324.267,162.131,324.267z M170.664,290.134h17.067V307.2
				h-17.067V290.134z"></path>
          <path d="M230.397,324.267h34.133c4.719,0,8.533-3.814,8.533-8.533V281.6c0-4.719-3.814-8.533-8.533-8.533h-34.133
				c-4.719,0-8.533,3.814-8.533,8.533v34.133C221.864,320.453,225.679,324.267,230.397,324.267z M238.931,290.134h17.067V307.2
				h-17.067V290.134z"></path>
          <path d="M298.664,324.267h34.133c4.719,0,8.533-3.814,8.533-8.533V281.6c0-4.719-3.814-8.533-8.533-8.533h-34.133
				c-4.719,0-8.533,3.814-8.533,8.533v34.133C290.131,320.453,293.945,324.267,298.664,324.267z M307.197,290.134h17.067V307.2
				h-17.067V290.134z"></path>
          <path d="M366.931,324.267h34.133c4.719,0,8.533-3.814,8.533-8.533V281.6c0-4.719-3.814-8.533-8.533-8.533h-34.133
				c-4.719,0-8.533,3.814-8.533,8.533v34.133C358.397,320.453,362.212,324.267,366.931,324.267z M375.464,290.134h17.067V307.2
				h-17.067V290.134z"></path>
        </g>
      </g>
    </g>
  </symbol>
  <symbol version="1.1" xmlns="http://www.w3.org/2000/svg" viewBox="0 0 1024 1024" id="idea-svgrepo-com">
    <path d="M602.587685 727.095869c7.981294-58.263445 57.465316-115.728761 73.427903-131.691348 94.977397-91.784879 97.371785-242.631333 5.586906-337.60873s-243.429462-97.371785-338.406859-5.586906-97.371785 243.429462-5.586905 338.406859l5.586905 5.586906c15.962588 15.164458 65.44661 72.629774 73.427904 131.691348 1.596259 17.558846 3.192518 35.117693 2.394388 51.87841h180.377241c0.798129-17.558846 1.596259-35.117693 3.192517-52.676539z" fill="#FFECBA"></path>
    <path d="M600.193297 795.734996H419.017927c-3.990647 0-7.981294-1.596259-11.173812-4.788776-3.192518-3.192518-4.788776-7.183164-4.788776-11.173812 0-16.760717-0.798129-33.521434-2.394388-50.282151-7.183164-51.87841-51.87841-105.353079-68.639127-122.113796l-5.586906-5.586905c-47.887763-48.685892-73.427903-113.334373-71.831644-181.9735s28.732658-131.691348 77.41855-179.579111 113.334373-73.427903 181.973499-71.831645c67.840998 0.798129 131.691348 28.732658 179.579112 77.41855s73.427903 113.334373 71.831645 181.9735c-0.798129 67.840998-28.732658 131.691348-77.418551 179.579111-15.962588 15.164458-61.455963 69.437256-68.639127 122.113796-1.596259 16.760717-3.192518 33.521434-2.394388 50.282151 0 3.990647-1.596259 7.981294-4.788776 11.173812-3.990647 3.192518-7.981294 4.788776-11.971941 4.788776z m-165.212783-31.925175h149.250195c0-12.77007 1.596259-25.54014 2.394388-38.310211 10.375682-74.226033 77.41855-139.672642 78.21668-140.470771 43.098987-41.502728 67.042868-97.371785 67.840998-157.231489 0.798129-59.859704-21.549493-116.52689-63.052222-158.827748-41.502728-43.098987-97.371785-67.042868-157.231488-67.840997C453.33749 199.532346 396.670304 221.879969 354.369447 263.382697c-43.098987 41.502728-67.042868 97.371785-67.840998 157.231489-0.798129 59.859704 21.549493 116.52689 63.052221 158.827747l4.788777 4.788776c0.798129 0.798129 67.840998 67.042868 78.216679 140.470772 1.596259 13.5682 2.394388 26.33827 2.394388 39.10834z" fill=""></path>
    <path d="M418.219797 902.684334c-2.394388 53.474669 37.512081 99.766173 91.78488 105.353078 53.474669-4.788776 94.179267-51.080281 91.784879-105.353078 0-39.906469-1.596259-85.399844-1.596259-123.710055H419.017927c0.798129 38.31021-0.798129 83.803585-0.79813 123.710055z" fill="#B2DAF6"></path>
    <path d="M510.004677 1024h-1.596259c-62.254092-5.586906-108.545596-59.061574-106.151208-121.315666 0-18.356976 0-37.512081 0.798129-55.869057 0-22.347623 0.798129-46.291504 0.798129-67.042869 0-3.990647 1.596259-7.981294 4.788777-11.173811 3.192518-3.192518 7.183164-4.788776 11.173811-4.788776h181.17537c3.990647 0 7.981294 1.596259 11.173812 4.788776 3.192518 3.192518 4.788776 7.183164 4.788776 11.173811 0 19.953235 0 43.098987 0.798129 65.44661 0 19.155105 0.798129 39.10834 0.79813 57.465316 2.394388 62.254092-43.897116 115.728761-106.949338 121.315666h-1.596258z m-75.024163-228.265004c0 16.760717 0 34.319564-0.798129 51.080281 0 19.155105-0.798129 38.31021-0.798129 55.869057v0.798129c-1.596259 44.695246 31.127046 83.005456 75.822291 88.592362 44.695246-4.788776 78.21668-43.098987 75.822292-88.592362 0-19.155105 0-38.31021-0.79813-57.465316 0-16.760717-0.798129-34.319564-0.798129-50.282151H434.980514zM418.219797 902.684334z" fill=""></path>
    <path d="M633.714731 795.734996H378.313328c-8.779423 0-15.962588-7.183164-15.962588-15.962588s7.183164-15.962588 15.962588-15.962587h255.401403c8.779423 0 15.962588 7.183164 15.962588 15.962587s-7.183164 15.962588-15.962588 15.962588zM601.789556 861.181606H418.219797c-8.779423 0-15.962588-7.183164-15.962587-15.962588s7.183164-15.962588 15.962587-15.962588h183.569759c8.779423 0 15.962588 7.183164 15.962587 15.962588s-7.183164 15.962588-15.962587 15.962588zM601.789556 919.445051H418.219797c-8.779423 0-15.962588-7.183164-15.962587-15.962588s7.183164-15.962588 15.962587-15.962588h183.569759c8.779423 0 15.962588 7.183164 15.962587 15.962588s-7.183164 15.962588-15.962587 15.962588z" fill=""></path>
    <path d="M478.877631 795.734996c-8.779423 0-15.962588-7.183164-15.962588-15.962588 0-1.596259-2.394388-144.461419-2.394388-209.109898h-3.990647c-19.953235 0-34.319564-5.586906-43.897116-15.962588-8.779423-8.779423-12.77007-21.549493-11.971941-36.713952 0.798129-12.77007 7.183164-41.502728 50.282151-41.502728 12.77007 0 23.145752 3.192518 29.530787 10.375682 11.971941 11.971941 11.971941 29.530787 11.173812 50.282152v0.798129h31.925175V526.765394c0-31.925175 18.356976-49.484022 51.080281-49.484022 13.5682 0 24.742011 5.586906 32.723304 15.164458 6.385035 7.981294 10.375682 19.155105 10.375682 30.328917 0 23.943882-15.962588 48.685892-44.695245 48.685892h-17.558847v208.311769c0 8.779423-7.183164 15.962588-15.962587 15.962588s-15.962588-7.183164-15.962588-15.962588V571.460639h-31.925175c0.798129 63.850351 2.394388 206.715511 2.394388 208.311769 0.798129 8.779423-5.586906 15.962588-15.164458 15.962588z m77.41855-256.199532h17.558846c10.375682 0 12.77007-11.971941 12.77007-16.760717 0-3.990647-0.798129-7.981294-3.192517-10.375682-0.798129-1.596259-3.192518-3.192518-7.981294-3.192518-16.760717 0-19.155105 3.990647-19.155105 17.558847v12.77007z m-105.353079-30.328917c-17.558846 0-17.558846 5.586906-18.356976 11.971941 0 5.586906 0.798129 10.375682 3.192518 12.77007 3.192518 3.192518 11.173811 5.586906 20.751364 5.586906h3.990647v-0.79813c0-10.375682 0-25.54014-2.394388-27.934528-0.798129-0.798129-2.394388-1.596259-7.183165-1.596259zM332.819953 435.778644c-8.779423 0-15.962588-7.183164-15.962587-15.962588C316.857366 320.848012 398.266563 239.438815 498.032736 239.438815c8.779423 0 15.962588 7.183164 15.962587 15.962588s-7.183164 15.962588-15.962587 15.962588c-82.207327 0-149.250195 67.042868-149.250195 148.452065 0 8.779423-7.183164 15.962588-15.962588 15.962588zM153.240842 444.558067H98.968044c-8.779423 0-15.962588-7.183164-15.962588-15.962588s7.183164-15.962588 15.962588-15.962587h54.272798c8.779423 0 15.962588 7.183164 15.962587 15.962587s-7.183164 15.962588-15.962587 15.962588zM925.031956 444.558067h-54.272798c-8.779423 0-15.962588-7.183164-15.962587-15.962588s7.183164-15.962588 15.962587-15.962587h54.272798c8.779423 0 15.962588 7.183164 15.962588 15.962587s-7.183164 15.962588-15.962588 15.962588zM512.399065 85.399844c-8.779423 0-15.962588-7.183164-15.962588-15.962588V15.962588c0-8.779423 7.183164-15.962588 15.962588-15.962588s15.962588 7.183164 15.962587 15.962588v54.272798c0 8.779423-7.183164 15.164458-15.962587 15.164458z" fill=""></path>
    <path d="M234.650039 205.119252c-3.990647 0-7.981294-1.596259-11.173811-4.788777l-38.310211-38.31021c-6.385035-6.385035-6.385035-15.962588 0-22.347623 6.385035-6.385035 15.962588-6.385035 22.347623 0l38.31021 38.310211c6.385035 6.385035 6.385035 15.962588 0 22.347622-3.192518 3.192518-7.183164 4.788776-11.173811 4.788777z" fill=""></path>
    <path d="M781.368667 205.119252c-3.990647 0-7.981294-1.596259-11.173811-4.788777-6.385035-6.385035-6.385035-15.962588 0-22.347622l38.31021-38.310211c6.385035-6.385035 15.962588-6.385035 22.347623 0s6.385035 15.962588 0 22.347623l-38.31021 38.31021c-3.192518 3.192518-7.183164 4.788776-11.173812 4.788777z" fill=""></path>
  </symbol>
  <symbol xmlns="http://www.w3.org/2000/svg" viewBox="0 0 100 100" id="settings-svgrepo-com">
    <path fill-rule="evenodd" clip-rule="evenodd" fill="#BDC3C7" d="M97.55 85.718L45.407 33.574c-4.588-4.587 3.054-15.538-5.729-24.32L23.664 0l-3.381 3.38 8.832 8.831c3.381 3.38.849 10.983-2.545 14.377-3.367 3.367-10.977 5.906-14.357 2.525l-8.833-8.83L0 23.664l9.254 16.014c8.734 8.735 19.87 1.277 24.321 5.729l52.143 52.144A8.367 8.367 0 0 0 97.55 85.718zm-3.381 8.451a3.585 3.585 0 1 1-5.07-5.07 3.585 3.585 0 0 1 5.07 5.07z"></path>
    <path fill="#95A5A6" d="M33.682 12.334L22.512 1.151 20.283 3.38l8.832 8.831c3.381 3.38.849 10.983-2.545 14.377-3.367 3.367-10.977 5.906-14.357 2.525l-8.833-8.83-1.975 1.975 11.177 11.19c1.524 1.525 3.914 2.332 6.911 2.332 4.492 0 9.453-1.824 12.063-4.437 4.417-4.42 6.311-14.822 2.126-19.009zm62.064 75.615L45.775 37.972c-1.042-1.042-2.426-1.615-3.898-1.615s-2.857.574-3.898 1.615a5.522 5.522 0 0 0 0 7.798L87.95 95.746c1.041 1.042 2.426 1.615 3.898 1.615s2.857-.573 3.898-1.615a5.52 5.52 0 0 0 0-7.797zm-1.577 6.22a3.585 3.585 0 1 1-5.07-5.07 3.585 3.585 0 0 1 5.07 5.07z"></path>
    <path fill-rule="evenodd" clip-rule="evenodd" fill="#ECF0F1" d="M80 14L93 4l7 7-10 13h-5L55 54l-5-5 30-30v-5z"></path>
    <path fill-rule="evenodd" clip-rule="evenodd" fill="#BDC3C7" d="M52.5 51.5L55 54l30-30h5l10-13-3.5-3.5z"></path>
    <path fill-rule="evenodd" clip-rule="evenodd" fill="#D35400" d="M42.51 46.095l.854.845L5.768 84.161a5.931 5.931 0 0 0 0 8.447l5.119 5.068c2.356 2.332 5.17 3.326 7.526.994l38.603-38.216.853.845c.942.933 2.471.933 3.413 0s.942-2.446 0-3.379L45.923 42.716c-.942-.933-2.471-.933-3.413 0s-.943 2.446 0 3.379z"></path>
    <path fill-rule="evenodd" clip-rule="evenodd" fill="#E66612" d="M50.25 53.75L8.594 95.406l2.293 2.271c2.356 2.332 5.17 3.326 7.526.994l38.573-38.186-6.736-6.735z"></path>
  </symbol>
  <symbol fill="#000000" version="1.1" id="marketing-chart-svgrepo-com" xmlns="http://www.w3.org/2000/svg" xmlns:xlink="http://www.w3.org/1999/xlink" xml:space="preserve" viewBox="0 0 390 390">
    <g>
      <path d="M0,0v390h390V0H0z M305,30h55v55h-55V30z M235,30h60v55h-60V30z M165,30h60v55h-60V30z M30,30h55v55H30V30z M30,95h55v60
		H30V95z M30,225v-60h51.445L95,143.728V95h31.047l6.372-10H95V30h60v55h-7.279L165,112.853V95h60v60h-33.852l6.204,10H225v22.192
		l10-10.676V165h10.788l9.367-10H235V95h60v39.161l10,5.292V95h55v60h-25.619l18.897,10H360v18.407l-74.449-39.396l-69.935,74.66
		L141.249,98.798L30,273.396V235h6.844l6.372-10H30z M155,360H95v-55h60V360z M225,360h-60v-55h60V360z M295,360h-60v-55h60V360z
		 M360,360h-55v-55h55V360z M360,295h-55v-60h55V295z M305,225v-28.979l-10-5.292V225h-36.905l-9.367,10H295v60h-60v-45.346
		l-10,10.677V295h-60v-60h16.938l-6.204-10H165v-17.303l-10-16.119V225h-52.496l-6.372,10H155v60H95v-58.225l-10,15.695V295H57.902
		l-6.371,10H85v55H30v-45.66l111.001-174.21l71.051,114.528l78.065-83.34L360,208.297V225H305z"></path>
    </g>
  </symbol>
  <symbol fill="#000000" id="presentation-chart-4-svgrepo-com" version="1.1" xml:space="preserve" xmlns="http://www.w3.org/2000/svg" xmlns:xlink="http://www.w3.org/1999/xlink" viewBox="0 0 60 60">
    <g>
      <path d="M60,4H31V1c0-0.553-0.447-1-1-1s-1,0.447-1,1v3H0v42h27.586L15.293,58.293c-0.391,0.391-0.391,1.023,0,1.414   C15.488,59.902,15.744,60,16,60s0.512-0.098,0.707-0.293L29,47.414V57c0,0.553,0.447,1,1,1s1-0.447,1-1v-9.586l12.293,12.293   C43.488,59.902,43.744,60,44,60s0.512-0.098,0.707-0.293c0.391-0.391,0.391-1.023,0-1.414L32.414,46H60V4z M58,44H2V6h56V44z"></path>
      <path d="M36,42c0.553,0,1-0.447,1-1v-3c0-0.553-0.447-1-1-1s-1,0.447-1,1v3C35,41.553,35.447,42,36,42z"></path>
      <path d="M40,33c-0.553,0-1,0.447-1,1v7c0,0.553,0.447,1,1,1s1-0.447,1-1v-7C41,33.447,40.553,33,40,33z"></path>
      <path d="M44,35c-0.553,0-1,0.447-1,1v5c0,0.553,0.447,1,1,1s1-0.447,1-1v-5C45,35.447,44.553,35,44,35z"></path>
      <path d="M48,28c-0.553,0-1,0.447-1,1v12c0,0.553,0.447,1,1,1s1-0.447,1-1V29C49,28.447,48.553,28,48,28z"></path>
      <path d="M52,32c-0.553,0-1,0.447-1,1v8c0,0.553,0.447,1,1,1s1-0.447,1-1v-8C53,32.447,52.553,32,52,32z"></path>
      <path d="M8,38h10c0.553,0,1-0.447,1-1s-0.447-1-1-1H8c-0.553,0-1,0.447-1,1S7.447,38,8,38z"></path>
      <path d="M23,40H8c-0.553,0-1,0.447-1,1s0.447,1,1,1h15c0.553,0,1-0.447,1-1S23.553,40,23,40z"></path>
      <path d="M29.955,18.607c-0.018-0.239-0.047-0.474-0.08-0.708c-0.02-0.142-0.04-0.284-0.065-0.425   c-0.047-0.263-0.106-0.521-0.17-0.778c-0.029-0.115-0.056-0.231-0.089-0.345c-0.076-0.265-0.164-0.525-0.258-0.782   c-0.04-0.11-0.078-0.221-0.121-0.33c-0.096-0.241-0.205-0.475-0.317-0.707c-0.06-0.124-0.116-0.25-0.18-0.372   c-0.103-0.195-0.216-0.382-0.33-0.57c-0.091-0.152-0.178-0.306-0.276-0.454c-0.088-0.131-0.185-0.255-0.278-0.383   c-0.138-0.19-0.272-0.382-0.422-0.564c0-0.001-0.001-0.001-0.002-0.002c-0.233-0.283-0.476-0.558-0.737-0.819   c-0.25-0.25-0.514-0.481-0.784-0.705c-0.014-0.011-0.026-0.024-0.039-0.035c-0.173-0.142-0.355-0.269-0.535-0.4   C25.135,10.126,25,10.02,24.856,9.925c-0.136-0.09-0.278-0.17-0.417-0.254c-0.201-0.122-0.403-0.243-0.612-0.353   c-0.109-0.057-0.222-0.107-0.333-0.161C23.249,9.038,23,8.924,22.745,8.822c-0.098-0.039-0.197-0.072-0.295-0.108   c-0.267-0.098-0.537-0.189-0.813-0.268c-0.108-0.031-0.218-0.057-0.327-0.084c-0.26-0.066-0.522-0.125-0.789-0.173   c-0.141-0.026-0.284-0.045-0.426-0.065c-0.232-0.032-0.464-0.06-0.7-0.079c-0.18-0.014-0.361-0.022-0.542-0.027   C18.735,8.014,18.619,8,18.5,8c-0.09,0-0.178,0.011-0.268,0.014c-0.088,0.002-0.175-0.006-0.264-0.002l-0.395,0.024l-0.01,0.011   C11.66,8.527,7,13.475,7,19.5C7,25.841,12.159,31,18.5,31c2.879,0,5.508-1.071,7.528-2.827c0.028-0.022,0.062-0.032,0.088-0.058   c0.016-0.016,0.021-0.037,0.036-0.054c2.125-1.901,3.542-4.571,3.799-7.574l0.019-0.016l0.02-0.44   c0.004-0.088-0.004-0.174-0.002-0.262C29.988,19.679,30,19.591,30,19.5c0-0.122-0.015-0.241-0.018-0.362   C29.976,18.96,29.969,18.784,29.955,18.607z M19,10.025c0.099,0.005,0.199,0.007,0.298,0.015c0.104,0.008,0.208,0.018,0.311,0.03   c0.227,0.027,0.451,0.061,0.673,0.103c0.067,0.013,0.134,0.024,0.201,0.038c0.272,0.058,0.541,0.126,0.804,0.207   c0.016,0.005,0.033,0.009,0.049,0.014c2.962,0.928,5.304,3.27,6.232,6.232c0.005,0.016,0.009,0.033,0.014,0.049   c0.081,0.263,0.149,0.531,0.207,0.804c0.014,0.067,0.025,0.134,0.038,0.201c0.042,0.222,0.076,0.446,0.103,0.673   c0.012,0.103,0.021,0.207,0.03,0.311c0.008,0.098,0.01,0.199,0.015,0.298H19V10.025z M9,19.5c0-4.727,3.474-8.647,8-9.37v9.833   l0.001,0.031c0,0.005,0.001,0.009,0.001,0.014L17.037,21h0.549l6.31,6.31C22.362,28.373,20.504,29,18.5,29   C13.262,29,9,24.738,9,19.5z M25.411,25.997L20.414,21h7.456C27.564,22.917,26.686,24.643,25.411,25.997z"></path>
      <path d="M39,15h8c0.553,0,1-0.447,1-1s-0.447-1-1-1h-8c-0.553,0-1,0.447-1,1S38.447,15,39,15z"></path>
      <path d="M51.3,13.29C51.109,13.47,51,13.729,51,14c0,0.27,0.109,0.53,0.29,0.7C51.479,14.89,51.729,15,52,15   c0.26,0,0.52-0.11,0.71-0.29C52.89,14.52,53,14.26,53,14s-0.11-0.521-0.29-0.71C52.33,12.92,51.649,12.93,51.3,13.29z"></path>
      <path d="M49,10h3c0.553,0,1-0.447,1-1s-0.447-1-1-1h-3c-0.553,0-1,0.447-1,1S48.447,10,49,10z"></path>
      <path d="M39,10h2c0.553,0,1-0.447,1-1s-0.447-1-1-1h-2c-0.553,0-1,0.447-1,1S38.447,10,39,10z"></path>
      <path d="M45,10c0.27,0,0.52-0.11,0.71-0.29C45.89,9.52,46,9.27,46,9c0-0.271-0.11-0.521-0.29-0.71c-0.37-0.37-1.061-0.37-1.42,0   C44.109,8.479,44,8.729,44,9c0,0.27,0.109,0.52,0.29,0.71C44.479,9.89,44.729,10,45,10z"></path>
    </g>
    <g></g>
    <g></g>
    <g></g>
    <g></g>
    <g></g>
    <g></g>
    <g></g>
    <g></g>
    <g></g>
    <g></g>
    <g></g>
    <g></g>
    <g></g>
    <g></g>
    <g></g>
  </symbol>
  <symbol fill="#000000" version="1.1" id="startup-rocket-svgrepo-com" xmlns="http://www.w3.org/2000/svg" xmlns:xlink="http://www.w3.org/1999/xlink" xml:space="preserve" viewBox="0 0 512 512">
    <g>
      <g>
        <path d="M497.405,19.431c-0.826-2.242-2.594-4.011-4.836-4.835C374.476-28.912,292.261,35.857,262.395,65.722
			c-19.512,19.513-48.979,59.843-77.143,101.901c-18.618-2.004-45.268-2.854-73.491,2.871
			c-33.554,6.807-61.566,21.257-83.258,42.949c-3.882,3.883-2.769,10.641,2.141,13.08l96.612,47.974l8.856,8.856l-24.404,8.134
			c-5.648,1.883-7.406,9.294-3.19,13.513l98.481,98.481c4.217,4.217,11.63,2.453,13.512-3.19l8.134-24.404l8.857,8.857
			l47.974,96.612c2.438,4.91,9.195,6.023,13.08,2.141c49.205-49.206,49.878-119.139,45.824-156.752
			c42.058-28.163,82.386-57.629,101.898-77.14C476.143,219.738,540.912,137.525,497.405,19.431z M483.369,28.631
			c22.236,63.358,10.806,115.352-7.916,152.952L456.13,162.26c7.983-29.038,0.61-61.453-22.164-84.228
			c-22.776-22.774-55.189-30.146-84.229-22.163l-19.322-19.322C368.017,17.825,420.011,6.395,483.369,28.631z M422.426,188.823
			c-13.684,13.684-31.651,20.524-49.625,20.522c-17.969-0.001-35.945-6.842-49.625-20.522c-27.363-27.363-27.363-71.887,0-99.25
			s71.885-27.364,99.249,0C449.789,116.935,449.789,161.459,422.426,188.823z M128.868,257.074L48.55,217.192
			c39.91-33.466,91.926-36.696,126.464-34.119C157.649,209.551,141.342,235.785,128.868,257.074z M209.204,382.603l-79.808-79.808
			l19.619-6.539l66.727,66.728L209.204,382.603z M294.805,463.445l-39.88-80.313c21.288-12.473,47.519-28.778,73.993-46.143
			C331.381,370.534,328.461,423.238,294.805,463.445z M350.809,302.627l-47.052-47.053c-3.187-3.186-8.354-3.186-11.54,0
			c-3.187,3.188-3.187,8.354,0,11.541l44.84,44.84c-31.985,21.485-65.384,42.487-91.507,57.754l-103.259-103.26
			c15.266-26.121,36.269-59.521,57.754-91.507l65.242,65.242c3.187,3.186,8.354,3.186,11.54,0c3.187-3.188,3.187-8.354,0-11.541
			l-67.453-67.453c3.589-5.236,7.168-10.395,10.716-15.443L366.253,291.91C361.205,295.458,356.044,299.038,350.809,302.627z
			 M379.733,282.309L229.69,132.267c17.01-23.555,32.716-43.474,44.245-55.004c8.954-8.954,22.991-21.298,41.589-32.529
			l17.602,17.603c-7.743,3.99-15.01,9.213-21.492,15.694c-33.727,33.728-33.727,88.606,0,122.334
			c16.864,16.863,39.014,25.294,61.166,25.294s44.302-8.431,61.166-25.294c6.482-6.482,11.704-13.749,15.694-21.492l17.603,17.603
			c-11.231,18.597-23.574,32.633-32.528,41.587C423.207,249.593,403.288,265.299,379.733,282.309z"></path>
      </g>
    </g>
    <g>
      <g>
        <path d="M415.501,96.497c-3.187-3.186-8.354-3.186-11.54,0c-3.187,3.188-3.187,8.354,0,11.541
			c8.323,8.323,12.907,19.388,12.907,31.16s-4.584,22.836-12.907,31.16s-19.389,12.907-31.16,12.907s-22.836-4.584-31.16-12.907
			c-17.182-17.182-17.182-45.138,0-62.319c8.722-8.723,20.817-13.384,33.125-12.864c4.502,0.222,8.314-3.289,8.514-7.791
			c0.199-4.503-3.289-8.315-7.792-8.513c-16.893-0.75-33.436,5.675-45.388,17.627c-23.545,23.544-23.545,61.856,0,85.401
			c11.774,11.773,27.234,17.659,42.7,17.658c15.461-0.002,30.929-5.888,42.7-17.658c11.406-11.405,17.688-26.571,17.688-42.701
			S426.907,107.902,415.501,96.497z"></path>
      </g>
    </g>
    <g>
      <g>
        <circle cx="391.27" cy="139.196" r="13.057"></circle>
      </g>
    </g>
    <g>
      <g>
        <path d="M130.877,381.123c-26.941-26.938-70.773-26.938-97.712,0c-3.187,3.188-3.187,8.354,0,11.541
			c3.186,3.186,8.353,3.186,11.54,0c20.577-20.575,54.054-20.575,74.631,0c9.967,9.967,15.456,23.219,15.456,37.314
			c0,14.096-5.489,27.349-15.456,37.315c-15.812,15.812-72.279,24.503-102.141,27.543c1.673-16.107,5.852-49.278,13.898-74.773
			c1.357-4.298-1.028-8.882-5.326-10.239c-4.298-1.358-8.882,1.028-10.239,5.326C3.982,451.738,0.178,501.145,0.022,503.23
			c-0.368,4.908,3.845,9.106,8.748,8.748c9.843-0.739,96.898-7.934,122.106-33.143c13.05-13.05,20.237-30.401,20.237-48.857
			C151.114,411.524,143.927,394.173,130.877,381.123z"></path>
      </g>
    </g>
    <g>
      <g>
        <path d="M118.567,393.434c-13.364-13.363-35.108-13.362-48.47,0.001c-11.143,11.143-24.202,56.196-26.707,65.114
			c-1.69,6.017,4.04,11.75,10.062,10.062c8.919-2.505,53.972-15.564,65.114-26.707c6.474-6.473,10.039-15.081,10.039-24.236
			S125.041,399.908,118.567,393.434z M112.2,419.409c-0.395,4.127-2.246,8.025-5.176,10.955v0.001
			c-4.7,4.699-25.139,12.362-43.613,18.223c5.859-18.473,13.52-38.909,18.224-43.613c5.309-5.309,13.636-6.744,20.417-3.514
			C108.819,404.682,112.912,411.96,112.2,419.409z"></path>
      </g>
    </g>
  </symbol>
</svg>